<svg width="51" height="51" viewBox="0 0 51 51" fill="none" xmlns="http://www.w3.org/2000/svg">
<circle cx="26.7081" cy="26.7081" r="23.5" transform="rotate(119.509 26.7081 26.7081)" stroke="url(#paint0_linear_7663_48)"/>
<path d="M30.5999 21.2C30.5999 22.1548 30.2206 23.0704 29.5455 23.7456C28.8704 24.4207 27.9547 24.8 26.9999 24.8C26.0451 24.8 25.1294 24.4207 24.4543 23.7456C23.7792 23.0704 23.3999 22.1548 23.3999 21.2C23.3999 20.2452 23.7792 19.3295 24.4543 18.6544C25.1294 17.9793 26.0451 17.6 26.9999 17.6C27.9547 17.6 28.8704 17.9793 29.5455 18.6544C30.2206 19.3295 30.5999 20.2452 30.5999 21.2V21.2Z" fill="url(#paint1_linear_7663_48)"/>
<path d="M36.6001 23.6C36.6001 24.2365 36.3472 24.8469 35.8971 25.297C35.447 25.7471 34.8366 26 34.2001 26C33.5635 26 32.9531 25.7471 32.503 25.297C32.0529 24.8469 31.8 24.2365 31.8 23.6C31.8 22.9634 32.0529 22.353 32.503 21.9029C32.9531 21.4528 33.5635 21.2 34.2001 21.2C34.8366 21.2 35.447 21.4528 35.8971 21.9029C36.3472 22.353 36.6001 22.9634 36.6001 23.6V23.6Z" fill="url(#paint2_linear_7663_48)"/>
<path d="M31.7999 31.9999C31.7999 30.7269 31.2942 29.506 30.3941 28.6058C29.4939 27.7057 28.273 27.2 27 27.2C25.7269 27.2 24.506 27.7057 23.6058 28.6058C22.7057 29.506 22.2 30.7269 22.2 31.9999V35.5999H31.7999V31.9999Z" fill="url(#paint3_linear_7663_48)"/>
<path d="M22.1999 23.6C22.1999 24.2365 21.947 24.8469 21.497 25.297C21.0469 25.7471 20.4364 26 19.7999 26C19.1634 26 18.5529 25.7471 18.1028 25.297C17.6528 24.8469 17.3999 24.2365 17.3999 23.6C17.3999 22.9634 17.6528 22.353 18.1028 21.9029C18.5529 21.4528 19.1634 21.2 19.7999 21.2C20.4364 21.2 21.0469 21.4528 21.497 21.9029C21.947 22.353 22.1999 22.9634 22.1999 23.6V23.6Z" fill="url(#paint4_linear_7663_48)"/>
<path d="M34.2 35.5999V31.9999C34.2018 30.7799 33.892 29.5796 33.3 28.5127C33.8321 28.3766 34.3882 28.3637 34.9259 28.4752C35.4636 28.5866 35.9688 28.8194 36.4029 29.1558C36.8369 29.4922 37.1885 29.9233 37.4306 30.4162C37.6727 30.9091 37.7991 31.4508 37.8 31.9999V35.5999H34.2Z" fill="url(#paint5_linear_7663_48)"/>
<path d="M20.7 28.5128C20.108 29.5796 19.7983 30.7799 19.8 32V35.6H16.2V32C16.1997 31.4504 16.3253 30.9081 16.5671 30.4146C16.8089 29.9211 17.1604 29.4895 17.5948 29.1529C18.0292 28.8162 18.5349 28.5835 19.0731 28.4726C19.6114 28.3616 20.1679 28.3754 20.7 28.5128V28.5128Z" fill="url(#paint6_linear_7663_48)"/>
<circle cx="1" cy="36" r="1" fill="#F0868A"/>
<circle cx="14" cy="41" r="1" fill="#F0868A"/>
<circle cx="18" cy="1" r="1" fill="#F0868A"/>
<circle cx="10.5" cy="10.5" r="0.5" fill="#F0868A"/>
<circle cx="12.5" cy="4.5" r="0.5" fill="#F0868A"/>
<circle cx="6.5" cy="42.5" r="0.5" fill="#F0868A"/>
<defs>
<linearGradient id="paint0_linear_7663_48" x1="26.7081" y1="2.70811" x2="26.7081" y2="50.7081" gradientUnits="userSpaceOnUse">
<stop stop-color="#FF7D7D"/>
<stop offset="1" stop-color="#2C2E59"/>
</linearGradient>
<linearGradient id="paint1_linear_7663_48" x1="26.9999" y1="17.6" x2="26.9999" y2="24.8" gradientUnits="userSpaceOnUse">
<stop stop-color="#EF777B"/>
<stop offset="1" stop-color="#F08F92"/>
</linearGradient>
<linearGradient id="paint2_linear_7663_48" x1="34.2001" y1="21.2" x2="34.2001" y2="26" gradientUnits="userSpaceOnUse">
<stop stop-color="#EF777B"/>
<stop offset="1" stop-color="#F08F92"/>
</linearGradient>
<linearGradient id="paint3_linear_7663_48" x1="27" y1="27.2" x2="27" y2="35.5999" gradientUnits="userSpaceOnUse">
<stop stop-color="#EF777B"/>
<stop offset="1" stop-color="#F08F92"/>
</linearGradient>
<linearGradient id="paint4_linear_7663_48" x1="19.7999" y1="21.2" x2="19.7999" y2="26" gradientUnits="userSpaceOnUse">
<stop stop-color="#EF777B"/>
<stop offset="1" stop-color="#F08F92"/>
</linearGradient>
<linearGradient id="paint5_linear_7663_48" x1="35.55" y1="28.4001" x2="35.55" y2="35.5999" gradientUnits="userSpaceOnUse">
<stop stop-color="#EF777B"/>
<stop offset="1" stop-color="#F08F92"/>
</linearGradient>
<linearGradient id="paint6_linear_7663_48" x1="18.45" y1="28.3984" x2="18.45" y2="35.6" gradientUnits="userSpaceOnUse">
<stop stop-color="#EF777B"/>
<stop offset="1" stop-color="#F08F92"/>
</linearGradient>
</defs>
</svg>
